<svg width="24" height="25" viewBox="0 0 24 25" fill="none" xmlns="http://www.w3.org/2000/svg">
<path d="M6.2999 15.025C6.2999 14.5279 6.70285 14.125 7.1999 14.125H7.2119C7.70896 14.125 8.1119 14.5279 8.1119 15.025V15.037C8.1119 15.5341 7.70896 15.937 7.2119 15.937H7.1999C6.70285 15.937 6.2999 15.5341 6.2999 15.037V15.025Z" fill="#64748B"/>
<path d="M7.1999 16.525C6.70285 16.525 6.2999 16.9279 6.2999 17.425V17.437C6.2999 17.9341 6.70285 18.337 7.1999 18.337H7.2119C7.70896 18.337 8.1119 17.9341 8.1119 17.437V17.425C8.1119 16.9279 7.70896 16.525 7.2119 16.525H7.1999Z" fill="#64748B"/>
<path d="M8.6999 15.025C8.6999 14.5279 9.10285 14.125 9.5999 14.125H9.6119C10.109 14.125 10.5119 14.5279 10.5119 15.025V15.037C10.5119 15.5341 10.109 15.937 9.6119 15.937H9.5999C9.10285 15.937 8.6999 15.5341 8.6999 15.037V15.025Z" fill="#64748B"/>
<path d="M9.5999 16.525C9.10285 16.525 8.6999 16.9279 8.6999 17.425V17.437C8.6999 17.9341 9.10285 18.337 9.5999 18.337H9.6119C10.109 18.337 10.5119 17.9341 10.5119 17.437V17.425C10.5119 16.9279 10.109 16.525 9.6119 16.525H9.5999Z" fill="#64748B"/>
<path d="M11.0999 12.625C11.0999 12.1279 11.5028 11.725 11.9999 11.725H12.0119C12.509 11.725 12.9119 12.1279 12.9119 12.625V12.637C12.9119 13.1341 12.509 13.537 12.0119 13.537H11.9999C11.5028 13.537 11.0999 13.1341 11.0999 12.637V12.625Z" fill="#64748B"/>
<path d="M11.9999 14.125C11.5028 14.125 11.0999 14.5279 11.0999 15.025V15.037C11.0999 15.5341 11.5028 15.937 11.9999 15.937H12.0119C12.509 15.937 12.9119 15.5341 12.9119 15.037V15.025C12.9119 14.5279 12.509 14.125 12.0119 14.125H11.9999Z" fill="#64748B"/>
<path d="M11.0999 17.425C11.0999 16.9279 11.5028 16.525 11.9999 16.525H12.0119C12.509 16.525 12.9119 16.9279 12.9119 17.425V17.437C12.9119 17.9341 12.509 18.337 12.0119 18.337H11.9999C11.5028 18.337 11.0999 17.9341 11.0999 17.437V17.425Z" fill="#64748B"/>
<path d="M14.3999 11.725C13.9028 11.725 13.4999 12.1279 13.4999 12.625V12.637C13.4999 13.1341 13.9028 13.537 14.3999 13.537H14.4119C14.909 13.537 15.3119 13.1341 15.3119 12.637V12.625C15.3119 12.1279 14.909 11.725 14.4119 11.725H14.3999Z" fill="#64748B"/>
<path d="M13.4999 15.025C13.4999 14.5279 13.9028 14.125 14.3999 14.125H14.4119C14.909 14.125 15.3119 14.5279 15.3119 15.025V15.037C15.3119 15.5341 14.909 15.937 14.4119 15.937H14.3999C13.9028 15.937 13.4999 15.5341 13.4999 15.037V15.025Z" fill="#64748B"/>
<path d="M14.3999 16.525C13.9028 16.525 13.4999 16.9279 13.4999 17.425V17.437C13.4999 17.9341 13.9028 18.337 14.3999 18.337H14.4119C14.909 18.337 15.3119 17.9341 15.3119 17.437V17.425C15.3119 16.9279 14.909 16.525 14.4119 16.525H14.3999Z" fill="#64748B"/>
<path d="M15.8999 12.625C15.8999 12.1279 16.3028 11.725 16.7999 11.725H16.8119C17.309 11.725 17.7119 12.1279 17.7119 12.625V12.637C17.7119 13.1341 17.309 13.537 16.8119 13.537H16.7999C16.3028 13.537 15.8999 13.1341 15.8999 12.637V12.625Z" fill="#64748B"/>
<path d="M16.7999 14.125C16.3028 14.125 15.8999 14.5279 15.8999 15.025V15.037C15.8999 15.5341 16.3028 15.937 16.7999 15.937H16.8119C17.309 15.937 17.7119 15.5341 17.7119 15.037V15.025C17.7119 14.5279 17.309 14.125 16.8119 14.125H16.7999Z" fill="#64748B"/>
<path fill-rule="evenodd" clip-rule="evenodd" d="M6.8999 3.02499C7.39696 3.02499 7.7999 3.42794 7.7999 3.92499V5.42499H16.1999V3.92499C16.1999 3.42794 16.6028 3.02499 17.0999 3.02499C17.597 3.02499 17.9999 3.42794 17.9999 3.92499V5.42499H18.2999C20.1224 5.42499 21.5999 6.90245 21.5999 8.72499V18.925C21.5999 20.7475 20.1224 22.225 18.2999 22.225H5.6999C3.87736 22.225 2.3999 20.7475 2.3999 18.925V8.72499C2.3999 6.90245 3.87736 5.42499 5.6999 5.42499H5.9999V3.92499C5.9999 3.42794 6.40285 3.02499 6.8999 3.02499ZM5.6999 9.62499C4.87148 9.62499 4.1999 10.2966 4.1999 11.125V18.925C4.1999 19.7534 4.87148 20.425 5.6999 20.425H18.2999C19.1283 20.425 19.7999 19.7534 19.7999 18.925V11.125C19.7999 10.2966 19.1283 9.62499 18.2999 9.62499H5.6999Z" fill="#64748B"/>
</svg>
