<svg width="24" height="25" viewBox="0 0 24 25" fill="none" xmlns="http://www.w3.org/2000/svg">
<path d="M18.375 2.875C17.3395 2.875 16.5 3.71447 16.5 4.75V20.5C16.5 21.5355 17.3395 22.375 18.375 22.375H19.125C20.1605 22.375 21 21.5355 21 20.5V4.75C21 3.71447 20.1605 2.875 19.125 2.875H18.375Z" fill="#64748B"/>
<path d="M9.75 9.25C9.75 8.21447 10.5895 7.375 11.625 7.375H12.375C13.4105 7.375 14.25 8.21447 14.25 9.25V20.5C14.25 21.5355 13.4105 22.375 12.375 22.375H11.625C10.5895 22.375 9.75 21.5355 9.75 20.5V9.25Z" fill="#64748B"/>
<path d="M3 13.75C3 12.7145 3.83947 11.875 4.875 11.875H5.625C6.66053 11.875 7.5 12.7145 7.5 13.75V20.5C7.5 21.5355 6.66053 22.375 5.625 22.375H4.875C3.83947 22.375 3 21.5355 3 20.5V13.75Z" fill="#64748B"/>
</svg>
