<svg width="24" height="25" viewBox="0 0 24 25" fill="none" xmlns="http://www.w3.org/2000/svg">
<path d="M4.91307 3.28323C6.9877 3.01388 9.10296 2.875 11.2503 2.875C13.3974 2.875 15.5124 3.01385 17.5869 3.28315C19.5091 3.53269 20.8783 5.14437 20.9923 7.00995C20.6665 6.90114 20.3212 6.82896 19.96 6.79899C18.5715 6.68374 17.1673 6.625 15.75 6.625C14.3326 6.625 12.9285 6.68374 11.54 6.79898C9.1817 6.99471 7.5 8.98967 7.5 11.2332V15.5187C7.5 17.2094 8.45468 18.7576 9.9328 19.5029L7.28033 22.1553C7.06583 22.3698 6.74324 22.434 6.46299 22.3179C6.18273 22.2018 6 21.9283 6 21.625V17.5955C5.63649 17.5566 5.27417 17.5137 4.91308 17.4668C2.90466 17.206 1.5 15.4583 1.5 13.4876V7.26238C1.5 5.29172 2.90466 3.54399 4.91307 3.28323Z" fill="#64748B"/>
<path d="M15.75 8.125C14.3741 8.125 13.0114 8.18202 11.6641 8.29384C10.1248 8.4216 9 9.72782 9 11.2332V15.5187C9 17.0264 10.128 18.3333 11.6692 18.4591C12.9131 18.5607 14.17 18.6162 15.4384 18.624L18.2197 21.4053C18.4342 21.6198 18.7568 21.684 19.037 21.5679C19.3173 21.4518 19.5 21.1783 19.5 20.875V18.4851C19.6103 18.4768 19.7206 18.4682 19.8307 18.4592C21.372 18.3335 22.5 17.0265 22.5 15.5188V11.2332C22.5 9.72783 21.3752 8.42161 19.836 8.29385C18.4886 8.18202 17.1259 8.125 15.75 8.125Z" fill="#64748B"/>
</svg>
