<svg width="24" height="25" viewBox="0 0 24 25" fill="none" xmlns="http://www.w3.org/2000/svg">
<path fill-rule="evenodd" clip-rule="evenodd" d="M12 2.875C6.61522 2.875 2.25 7.24022 2.25 12.625C2.25 18.0098 6.61522 22.375 12 22.375C17.3848 22.375 21.75 18.0098 21.75 12.625C21.75 7.24022 17.3848 2.875 12 2.875ZM12.75 6.625C12.75 6.21079 12.4142 5.875 12 5.875C11.5858 5.875 11.25 6.21079 11.25 6.625V12.625C11.25 13.0392 11.5858 13.375 12 13.375H16.5C16.9142 13.375 17.25 13.0392 17.25 12.625C17.25 12.2108 16.9142 11.875 16.5 11.875H12.75V6.625Z" fill="#64748B"/>
</svg>
