<svg width="24" height="25" viewBox="0 0 24 25" fill="none" xmlns="http://www.w3.org/2000/svg">
<path fill-rule="evenodd" clip-rule="evenodd" d="M14.4473 3.65143C14.847 3.76042 15.0826 4.17272 14.9736 4.57234L10.4736 21.0723C10.3646 21.472 9.95228 21.7076 9.55266 21.5986C9.15304 21.4896 8.91744 21.0773 9.02643 20.6777L13.5264 4.17767C13.6354 3.77805 14.0477 3.54245 14.4473 3.65143ZM16.7197 6.84467C17.0126 6.55178 17.4874 6.55178 17.7803 6.84467L23.0303 12.0947C23.3232 12.3876 23.3232 12.8624 23.0303 13.1553L17.7803 18.4053C17.4874 18.6982 17.0126 18.6982 16.7197 18.4053C16.4268 18.1124 16.4268 17.6376 16.7197 17.3447L21.4393 12.625L16.7197 7.90533C16.4268 7.61244 16.4268 7.13757 16.7197 6.84467ZM7.28033 6.84468C7.57322 7.13757 7.57322 7.61244 7.28033 7.90533L2.56066 12.625L7.28033 17.3447C7.57322 17.6376 7.57322 18.1124 7.28033 18.4053C6.98744 18.6982 6.51256 18.6982 6.21967 18.4053L0.96967 13.1553C0.676777 12.8624 0.676777 12.3876 0.96967 12.0947L6.21967 6.84468C6.51256 6.55178 6.98744 6.55178 7.28033 6.84468Z" fill="#64748B"/>
</svg>
