<svg width="24" height="25" viewBox="0 0 24 25" fill="none" xmlns="http://www.w3.org/2000/svg">
<path fill-rule="evenodd" clip-rule="evenodd" d="M12 2.875C6.61522 2.875 2.25 7.24022 2.25 12.625C2.25 18.0098 6.61522 22.375 12 22.375C17.3848 22.375 21.75 18.0098 21.75 12.625C21.75 7.24022 17.3848 2.875 12 2.875ZM9.375 8.875C8.83433 8.875 8.54674 9.29381 8.43901 9.50926C8.30886 9.76957 8.25 10.0767 8.25 10.375C8.25 10.6733 8.30886 10.9804 8.43901 11.2407C8.54674 11.4562 8.83433 11.875 9.375 11.875C9.91567 11.875 10.2033 11.4562 10.311 11.2407C10.4411 10.9804 10.5 10.6733 10.5 10.375C10.5 10.0767 10.4411 9.76957 10.311 9.50926C10.2033 9.29381 9.91567 8.875 9.375 8.875ZM13.689 9.50926C13.7967 9.29381 14.0843 8.875 14.625 8.875C15.1657 8.875 15.4533 9.29381 15.561 9.50926C15.6911 9.76957 15.75 10.0767 15.75 10.375C15.75 10.6733 15.6911 10.9804 15.561 11.2407C15.4533 11.4562 15.1657 11.875 14.625 11.875C14.0843 11.875 13.7967 11.4562 13.689 11.2407C13.5589 10.9804 13.5 10.6733 13.5 10.375C13.5 10.0767 13.5589 9.76957 13.689 9.50926ZM9.34869 17.4732C9.0558 17.7661 8.58092 17.7661 8.28803 17.4732C7.99514 17.1803 7.99514 16.7055 8.28803 16.4126C9.31761 15.383 10.6699 14.8703 12.0184 14.8749C13.3548 14.8795 14.6923 15.3922 15.7126 16.4126C16.0055 16.7055 16.0055 17.1803 15.7126 17.4732C15.4198 17.7661 14.9449 17.7661 14.652 17.4732C13.9229 16.7441 12.9698 16.3782 12.0132 16.3749C11.048 16.3716 10.0843 16.7376 9.34869 17.4732Z" fill="#64748B"/>
</svg>
