<svg width="20" height="21" viewBox="0 0 20 21" fill="none" xmlns="http://www.w3.org/2000/svg">
<g clip-path="url(#clip0_9862_8490)">
<path d="M16.6667 0.625H3.33333C1.49238 0.625 0 2.03884 0 3.78289V17.4671C0 19.2112 1.49238 20.625 3.33333 20.625H16.6667C18.5076 20.625 20 19.2112 20 17.4671V3.78289C20 2.03884 18.5076 0.625 16.6667 0.625Z" fill="white"/>
<path d="M11.16 17.4671V11.4856H13.4522L13.7961 9.15385H11.16V7.66535C11.16 6.99045 11.3731 6.53053 12.4798 6.53053L13.8889 6.53001V4.44439C13.6452 4.41666 12.8086 4.3531 11.8351 4.3531C9.8021 4.3531 8.41027 5.43957 8.41027 7.43441V9.15385H6.11108V11.4856H8.41027V17.4671H11.16Z" fill="#156A35"/>
</g>
<defs>
<clipPath id="clip0_9862_8490">
<rect width="20" height="20" fill="white" transform="translate(0 0.625)"/>
</clipPath>
</defs>
</svg>
