<svg width="20" height="21" viewBox="0 0 20 21" fill="none" xmlns="http://www.w3.org/2000/svg">
<path d="M1.30459 2.01381C-0.262557 3.64162 0.0581852 5.37081 0.0581852 10.624C0.0581852 14.9864 -0.702955 19.3597 3.28057 20.3892C4.52448 20.7091 15.5461 20.7091 16.7883 20.3875C18.4469 19.9596 19.7963 18.6143 19.9808 16.2686C20.0065 15.9412 20.0065 5.31264 19.98 4.9786C19.7838 2.47997 18.2458 1.03995 16.2191 0.748292C15.7546 0.680986 15.6616 0.661043 13.2784 0.656889C4.82528 0.661043 2.97229 0.284628 1.30459 2.01381Z" fill="#D9D9D9"/>
<path d="M10.0277 3.26519C7.01051 3.26519 4.14544 2.9968 3.05109 5.80537C2.59906 6.96537 2.6647 8.47186 2.6647 10.629C2.6647 12.5219 2.60404 14.3009 3.05109 15.4517C4.14294 18.262 7.03129 17.9928 10.026 17.9928C12.9152 17.9928 15.8941 18.2936 17.0017 15.4517C17.4546 14.2801 17.3881 12.7961 17.3881 10.629C17.3881 7.75227 17.5468 5.89512 16.1517 4.5008C14.7391 3.0882 12.8287 3.26519 10.0243 3.26519H10.0277ZM9.36789 4.5922C15.6614 4.58223 16.4624 3.88258 16.0204 13.6021C15.8633 17.0397 13.2459 16.6624 10.0285 16.6624C4.16205 16.6624 3.99337 16.4946 3.99337 10.6257C3.99337 4.68859 4.4587 4.59553 9.36789 4.59054V4.5922ZM13.958 5.81451C13.7237 5.81451 13.4991 5.90758 13.3334 6.07322C13.1678 6.23887 13.0747 6.46354 13.0747 6.6978C13.0747 6.93207 13.1678 7.15673 13.3334 7.32238C13.4991 7.48803 13.7237 7.58109 13.958 7.58109C14.1923 7.58109 14.4169 7.48803 14.5826 7.32238C14.7482 7.15673 14.8413 6.93207 14.8413 6.6978C14.8413 6.46354 14.7482 6.23887 14.5826 6.07322C14.4169 5.90758 14.1923 5.81451 13.958 5.81451ZM10.0277 6.84737C9.5311 6.84743 9.03942 6.94528 8.58069 7.13536C8.12195 7.32543 7.70515 7.604 7.35407 7.95515C6.64504 8.66434 6.24677 9.62614 6.24688 10.629C6.24699 11.6318 6.64547 12.5935 7.35466 13.3026C8.06385 14.0116 9.02565 14.4099 10.0285 14.4098C11.0313 14.4096 11.993 14.0112 12.7021 13.302C13.4111 12.5928 13.8094 11.631 13.8093 10.6281C13.8091 9.62531 13.4107 8.6636 12.7015 7.95456C11.9923 7.24553 11.0305 6.84726 10.0277 6.84737ZM10.0277 8.17438C13.2725 8.17438 13.2766 13.0836 10.0277 13.0836C6.78367 13.0836 6.77868 8.17438 10.0277 8.17438Z" fill="#156A35"/>
</svg>
