<svg width="24" height="25" viewBox="0 0 24 25" fill="none" xmlns="http://www.w3.org/2000/svg">
<path fill-rule="evenodd" clip-rule="evenodd" d="M8.99991 2.875C9.41413 2.875 9.74991 3.21079 9.74991 3.625V5.13065C10.6343 5.144 11.513 5.18089 12.3855 5.24076C13.295 5.30316 14.1976 5.3905 15.0927 5.50213C15.5037 5.55338 15.7954 5.92814 15.7442 6.33917C15.6929 6.7502 15.3181 7.04185 14.9071 6.9906C14.2476 6.90836 13.5838 6.83971 12.9161 6.78493C12.3253 9.09471 11.3059 11.2324 9.94785 13.1084C10.2647 13.4916 10.5978 13.861 10.9461 14.2155C11.2364 14.5109 11.2323 14.9857 10.9369 15.2761C10.6415 15.5664 10.1666 15.5623 9.87627 15.2669C9.5734 14.9587 9.28108 14.64 8.99991 14.3116C7.42878 16.147 5.50932 17.6751 3.34414 18.7936C2.97613 18.9837 2.52369 18.8395 2.33357 18.4715C2.14346 18.1035 2.28768 17.651 2.65568 17.4609C4.73747 16.3855 6.57204 14.8987 8.05199 13.1084C7.18589 11.9119 6.45748 10.609 5.89012 9.22274C5.73323 8.83939 5.91681 8.40143 6.30016 8.24454C6.68351 8.08765 7.12146 8.27122 7.27835 8.65457C7.74067 9.78419 8.31948 10.854 8.99991 11.8492C10.0648 10.2917 10.8809 8.55104 11.3911 6.68444C10.5991 6.64497 9.80187 6.625 8.99991 6.625C6.99905 6.625 5.02757 6.74933 3.09272 6.9906C2.68169 7.04185 2.30693 6.7502 2.25568 6.33917C2.20442 5.92814 2.49608 5.55338 2.90711 5.50213C4.66105 5.28341 6.4437 5.1579 8.24991 5.13065V3.625C8.24991 3.21079 8.5857 2.875 8.99991 2.875ZM15.7499 9.625C16.0413 9.625 16.3063 9.79378 16.4296 10.0578L21.6796 21.3078C21.8547 21.6832 21.6924 22.1295 21.3171 22.3046C20.9417 22.4798 20.4954 22.3175 20.3203 21.9422L19.1223 19.375H12.3776L11.1796 21.9422C11.0044 22.3175 10.5581 22.4798 10.1827 22.3046C9.8074 22.1295 9.64511 21.6832 9.82028 21.3078L15.0703 10.0578C15.1935 9.79378 15.4585 9.625 15.7499 9.625ZM13.0776 17.875H18.4223L15.7499 12.1485L13.0776 17.875Z" fill="#64748B"/>
</svg>
