<svg width="20" height="21" viewBox="0 0 20 21" fill="none" xmlns="http://www.w3.org/2000/svg">
<path d="M10 0.628929C4.36744 0.628929 0 4.75434 0 10.3319C0 13.2472 1.19362 15.7664 3.13531 17.5046C3.21737 17.5765 3.28404 17.6642 3.33131 17.7625C3.37857 17.8608 3.40546 17.9677 3.41034 18.0767L3.46535 19.8534C3.46978 19.9842 3.50612 20.1119 3.5712 20.2255C3.63628 20.339 3.72813 20.4349 3.83875 20.5049C3.94937 20.5748 4.07541 20.6167 4.2059 20.6268C4.3364 20.6369 4.46738 20.615 4.58746 20.5629L6.56766 19.6828C6.73739 19.6077 6.92802 19.594 7.10671 19.6443C8.04947 19.902 9.02265 20.0316 10 20.0294C15.6326 20.0294 20 15.904 20 10.3319C20 4.75984 15.6326 0.628929 10 0.628929Z" fill="#D9D9D9"/>
<path d="M3.99354 13.1647L6.93084 8.50572C7.04137 8.32995 7.18716 8.17901 7.35899 8.06244C7.53082 7.94587 7.72495 7.8662 7.92914 7.82846C8.13332 7.79073 8.34311 7.79575 8.54525 7.8432C8.74739 7.89066 8.9375 7.97953 9.10355 8.10418L11.4413 9.85886C11.545 9.93483 11.6702 9.97579 11.7988 9.97579C11.9274 9.97579 12.0526 9.93483 12.1564 9.85886L15.3192 7.46062C15.7372 7.14159 16.2873 7.64764 16.0067 8.09318L13.0695 12.7521C12.9589 12.9271 12.8134 13.0773 12.642 13.1934C12.4706 13.3094 12.2771 13.3888 12.0736 13.4265C11.8701 13.4642 11.661 13.4594 11.4594 13.4125C11.2578 13.3655 11.0681 13.2774 10.9022 13.1537L8.5645 11.399C8.45977 11.3205 8.33238 11.278 8.20147 11.278C8.07055 11.278 7.94316 11.3205 7.83843 11.399L4.68111 13.7973C4.26307 14.1163 3.71302 13.6102 3.99354 13.1647Z" fill="#116631"/>
</svg>
