<svg width="24" height="25" viewBox="0 0 24 25" fill="none" xmlns="http://www.w3.org/2000/svg">
<path fill-rule="evenodd" clip-rule="evenodd" d="M1.5 6.625C1.5 5.38236 2.50736 4.375 3.75 4.375H20.25C21.4926 4.375 22.5 5.38236 22.5 6.625V18.625C22.5 19.8676 21.4926 20.875 20.25 20.875H3.75C2.50736 20.875 1.5 19.8676 1.5 18.625V6.625ZM3 16.6857V18.625C3 19.0392 3.33579 19.375 3.75 19.375H20.25C20.6642 19.375 21 19.0392 21 18.625V16.6857L18.3107 13.9963C17.7249 13.4105 16.7751 13.4105 16.1893 13.9963L15.3107 14.875L16.2803 15.8447C16.5732 16.1376 16.5732 16.6124 16.2803 16.9053C15.9874 17.1982 15.5126 17.1982 15.2197 16.9053L10.0607 11.7463C9.47487 11.1605 8.52513 11.1605 7.93934 11.7463L3 16.6857ZM13.125 8.875C13.125 8.25368 13.6287 7.75 14.25 7.75C14.8713 7.75 15.375 8.25368 15.375 8.875C15.375 9.49632 14.8713 10 14.25 10C13.6287 10 13.125 9.49632 13.125 8.875Z" fill="#64748B"/>
</svg>
