<svg width="24" height="25" viewBox="0 0 24 25" fill="none" xmlns="http://www.w3.org/2000/svg">
<path fill-rule="evenodd" clip-rule="evenodd" d="M7.5 6.625V7.375H5.51287C4.55332 7.375 3.74862 8.09944 3.64817 9.05372L2.38502 21.0537C2.26848 22.1608 3.13652 23.125 4.24971 23.125H19.7504C20.8636 23.125 21.7317 22.1608 21.6151 21.0537L20.352 9.05372C20.2515 8.09944 19.4468 7.375 18.4873 7.375H16.5V6.625C16.5 4.13972 14.4853 2.125 12 2.125C9.51472 2.125 7.5 4.13972 7.5 6.625ZM12 3.625C10.3431 3.625 9 4.96815 9 6.625V7.375H15V6.625C15 4.96815 13.6569 3.625 12 3.625ZM9 11.875C9 13.5319 10.3431 14.875 12 14.875C13.6569 14.875 15 13.5319 15 11.875V11.125C15 10.7108 15.3358 10.375 15.75 10.375C16.1642 10.375 16.5 10.7108 16.5 11.125V11.875C16.5 14.3603 14.4853 16.375 12 16.375C9.51472 16.375 7.5 14.3603 7.5 11.875V11.125C7.5 10.7108 7.83579 10.375 8.25 10.375C8.66421 10.375 9 10.7108 9 11.125V11.875Z" fill="#64748B"/>
</svg>
