<svg width="24" height="25" viewBox="0 0 24 25" fill="none" xmlns="http://www.w3.org/2000/svg">
<path d="M6 3.625C4.34315 3.625 3 4.96815 3 6.625V8.875C3 10.5319 4.34315 11.875 6 11.875H8.25C9.90685 11.875 11.25 10.5319 11.25 8.875V6.625C11.25 4.96815 9.90685 3.625 8.25 3.625H6Z" fill="#64748B"/>
<path d="M15.75 3.625C14.0931 3.625 12.75 4.96815 12.75 6.625V8.875C12.75 10.5319 14.0931 11.875 15.75 11.875H18C19.6569 11.875 21 10.5319 21 8.875V6.625C21 4.96815 19.6569 3.625 18 3.625H15.75Z" fill="#64748B"/>
<path d="M6 13.375C4.34315 13.375 3 14.7181 3 16.375V18.625C3 20.2819 4.34315 21.625 6 21.625H8.25C9.90685 21.625 11.25 20.2819 11.25 18.625V16.375C11.25 14.7181 9.90685 13.375 8.25 13.375H6Z" fill="#64748B"/>
<path d="M17.625 14.125C17.625 13.7108 17.2892 13.375 16.875 13.375C16.4608 13.375 16.125 13.7108 16.125 14.125V16.75H13.5C13.0858 16.75 12.75 17.0858 12.75 17.5C12.75 17.9142 13.0858 18.25 13.5 18.25H16.125V20.875C16.125 21.2892 16.4608 21.625 16.875 21.625C17.2892 21.625 17.625 21.2892 17.625 20.875V18.25H20.25C20.6642 18.25 21 17.9142 21 17.5C21 17.0858 20.6642 16.75 20.25 16.75H17.625V14.125Z" fill="#64748B"/>
</svg>
