<svg width="20" height="21" viewBox="0 0 20 21" fill="none" xmlns="http://www.w3.org/2000/svg">
<path d="M16.675 0.625H3.325C1.48865 0.625 0 2.11365 0 3.95V17.3C0 19.1363 1.48865 20.625 3.325 20.625H16.675C18.5113 20.625 20 19.1363 20 17.3V3.95C20 2.11365 18.5113 0.625 16.675 0.625Z" fill="white"/>
<path d="M16.2339 8.98859V6.32158C12.7477 6.17437 12.6355 3.0064 12.6355 2.70871V2.68628H9.94092V13.0735C9.94063 13.5223 9.7988 13.9597 9.5356 14.3232C9.2724 14.6868 8.90125 14.9582 8.47494 15.0987C8.04863 15.2391 7.58887 15.2416 7.16108 15.1057C6.73329 14.9698 6.35925 14.7025 6.09217 14.3417C5.82509 13.9809 5.67858 13.5452 5.67347 13.0963C5.66837 12.6475 5.80493 12.2085 6.06374 11.8417C6.32254 11.475 6.6904 11.1992 7.11499 11.0536C7.53958 10.908 7.99927 10.9 8.42867 11.0308V8.28013C8.22224 8.25365 8.01432 8.24038 7.8062 8.24041C6.85031 8.24041 5.91589 8.52386 5.1211 9.05492C4.32631 9.58599 3.70684 10.3408 3.34104 11.2239C2.97524 12.1071 2.87953 13.0788 3.06601 14.0163C3.2525 14.9539 3.7128 15.815 4.38871 16.4909C5.06463 17.1669 5.9258 17.6272 6.86331 17.8136C7.80083 18.0001 8.7726 17.9044 9.65572 17.5386C10.5388 17.1728 11.2937 16.5533 11.8247 15.7586C12.3558 14.9638 12.6392 14.0293 12.6392 13.0735C12.6392 13.0057 12.6392 12.9384 12.6346 12.8716V7.75673C13.8753 8.89185 16.2339 8.98859 16.2339 8.98859Z" fill="#00F6EF"/>
<path d="M17.0273 9.64673V6.97832C13.5407 6.83111 13.429 3.66313 13.429 3.36545V3.34302H10.7344V13.7302C10.7342 14.1791 10.5924 14.6165 10.3293 14.9801C10.0662 15.3438 9.69503 15.6152 9.26873 15.7558C8.84242 15.8963 8.38265 15.8988 7.95482 15.763C7.52699 15.6271 7.1529 15.3598 6.88577 14.9991C6.61864 14.6384 6.47207 14.2026 6.46693 13.7537C6.46179 13.3049 6.59833 12.8658 6.85713 12.499C7.11592 12.1323 7.48379 11.8565 7.90839 11.7109C8.333 11.5652 8.79271 11.5572 9.22213 11.688V8.93687C9.01519 8.91095 8.8068 8.89831 8.59825 8.89901C7.64234 8.89929 6.70799 9.18303 5.91334 9.71434C5.11869 10.2457 4.49945 11.0007 4.13392 11.8839C3.76838 12.7672 3.67298 13.739 3.85978 14.6765C4.04657 15.614 4.50717 16.475 5.18333 17.1507C5.85948 17.8264 6.72083 18.2864 7.65843 18.4726C8.59604 18.6587 9.56779 18.5627 10.4508 18.1965C11.3338 17.8304 12.0884 17.2107 12.6192 16.4157C13.15 15.6207 13.4331 14.6861 13.4327 13.7302C13.4327 13.6624 13.4327 13.5951 13.428 13.5283V8.41347C14.6688 9.54859 17.0273 9.64673 17.0273 9.64673Z" fill="#116631"/>
<path d="M12.7026 3.34302C12.8325 4.05054 13.2119 5.1567 14.3181 5.80394C13.4727 4.81929 13.4302 3.54864 13.4302 3.36545V3.34302H12.7026ZM17.0276 9.64673V6.97832C16.7607 6.96854 16.4951 6.93728 16.2332 6.88485V8.98547C16.2332 8.98547 13.8746 8.88873 12.6348 7.75361V12.867C12.6376 12.9339 12.6395 13.0012 12.6395 13.0689C12.6393 13.9433 12.402 14.8014 11.9528 15.5515C11.5036 16.3017 10.8592 16.916 10.0884 17.3289C9.31766 17.7418 8.44931 17.9379 7.57588 17.8963C6.70246 17.8547 5.85668 17.5769 5.12866 17.0926C5.79819 17.784 6.65894 18.2598 7.6006 18.4589C8.54226 18.6581 9.52194 18.5715 10.4141 18.2102C11.3062 17.849 12.0701 17.2296 12.608 16.4315C13.1459 15.6333 13.4331 14.6927 13.433 13.7302C13.433 13.6624 13.433 13.5951 13.4283 13.5283V8.41347C14.6691 9.54859 17.0276 9.64673 17.0276 9.64673Z" fill="#FF004F"/>
<path d="M8.42897 11.0268C7.91445 10.8699 7.35966 10.9129 6.87552 11.1474C6.39138 11.3818 6.01357 11.7903 5.81761 12.2913C5.62166 12.7923 5.62201 13.3487 5.81859 13.8494C6.01517 14.3501 6.39349 14.7582 6.87793 14.992C6.6132 14.6304 6.46896 14.1947 6.46564 13.7465C6.46233 13.2984 6.60011 12.8606 6.85946 12.4951C7.11882 12.1296 7.4866 11.855 7.91071 11.7101C8.33482 11.5653 8.79375 11.5576 9.22249 11.6881V8.93693C9.01555 8.91101 8.80716 8.89837 8.59861 8.89908C8.54113 8.89908 8.48458 8.89908 8.42757 8.90235L8.42897 11.0268Z" fill="#FF004F"/>
</svg>
