<svg width="20" height="21" viewBox="0 0 20 21" fill="none" xmlns="http://www.w3.org/2000/svg">
<rect y="0.629211" width="20" height="20" rx="4" fill="white"/>
<path fill-rule="evenodd" clip-rule="evenodd" d="M10.0002 4.94171C8.58316 4.94171 7.1901 5.04539 5.82821 5.24563C4.67419 5.41531 3.875 6.42603 3.875 7.56125V11.0722C3.875 12.2074 4.67419 13.2181 5.82821 13.3878C6.33953 13.463 6.85526 13.5245 7.375 13.5721V15.8792C7.375 16.0562 7.48159 16.2157 7.64508 16.2834C7.80856 16.3511 7.99673 16.3137 8.12186 16.1886L10.5622 13.7482C10.6019 13.7085 10.6572 13.6843 10.7176 13.6828C11.8877 13.6539 13.0405 13.5542 14.1718 13.3879C15.3258 13.2182 16.125 12.2075 16.125 11.0722V7.5612C16.125 6.42597 15.3258 5.41524 14.1718 5.24558C12.81 5.04537 11.417 4.94171 10.0002 4.94171ZM7.8125 8.66046C7.45006 8.66046 7.15625 8.95427 7.15625 9.31671C7.15625 9.67915 7.45006 9.97296 7.8125 9.97296C8.17494 9.97296 8.46875 9.67915 8.46875 9.31671C8.46875 8.95427 8.17494 8.66046 7.8125 8.66046ZM9.34375 9.31671C9.34375 8.95427 9.63756 8.66046 10 8.66046C10.3624 8.66046 10.6562 8.95427 10.6562 9.31671C10.6562 9.67915 10.3624 9.97296 10 9.97296C9.63756 9.97296 9.34375 9.67915 9.34375 9.31671ZM12.1875 8.66046C11.8251 8.66046 11.5312 8.95427 11.5312 9.31671C11.5312 9.67915 11.8251 9.97296 12.1875 9.97296C12.5499 9.97296 12.8438 9.67915 12.8438 9.31671C12.8438 8.95427 12.5499 8.66046 12.1875 8.66046Z" fill="#116631"/>
</svg>
