<svg width="20" height="21" viewBox="0 0 20 21" fill="none" xmlns="http://www.w3.org/2000/svg">
<g clip-path="url(#clip0_9862_8512)">
<path d="M19.9988 15.5733C19.9988 15.6828 19.9954 15.9203 19.9888 16.1038C19.9727 16.5526 19.9371 17.1319 19.8833 17.3958C19.8025 17.7924 19.6804 18.1667 19.5212 18.4783C19.3329 18.8469 19.0926 19.177 18.8071 19.462C18.5223 19.7464 18.1925 19.9857 17.8244 20.1732C17.5112 20.3328 17.1346 20.455 16.7357 20.5355C16.4744 20.5883 15.8995 20.6232 15.4535 20.639C15.2699 20.6456 15.0323 20.6489 14.9232 20.6489L5.07506 20.6473C4.96555 20.6473 4.72809 20.644 4.54463 20.6374C4.09574 20.6213 3.51652 20.5857 3.2526 20.5319C2.856 20.451 2.48164 20.3289 2.17008 20.1698C1.80148 19.9814 1.47135 19.7412 1.18641 19.4557C0.902031 19.1708 0.662734 18.841 0.475176 18.473C0.315527 18.1598 0.193379 17.7831 0.112852 17.3842C0.0601172 17.123 0.0252148 16.5481 0.00933594 16.102C0.0028125 15.9184 -0.000488281 15.6809 -0.000488281 15.5718L0.00107422 5.7236C0.00107422 5.61409 0.00441406 5.37661 0.0109961 5.19315C0.0271094 4.74426 0.0626758 4.16505 0.116484 3.90114C0.197363 3.50454 0.319434 3.13018 0.478633 2.8186C0.666973 2.45003 0.907227 2.11987 1.19268 1.83493C1.47752 1.55057 1.80736 1.31126 2.17539 1.12368C2.48861 0.964068 2.86531 0.84192 3.26416 0.761393C3.52543 0.708639 4.10033 0.673736 4.54635 0.657877C4.72998 0.651334 4.96754 0.648033 5.0766 0.648033L14.9248 0.649615C15.0343 0.649615 15.2718 0.652955 15.4552 0.659537C15.9041 0.67565 16.4833 0.711217 16.7473 0.765025C17.1438 0.845904 17.5182 0.967975 17.8298 1.12717C18.1984 1.31551 18.5285 1.55577 18.8134 1.84122C19.0978 2.12606 19.3371 2.45588 19.5247 2.82393C19.6843 3.13715 19.8065 3.51383 19.887 3.91268C19.9397 4.17397 19.9746 4.74885 19.9905 5.19489C19.9971 5.37852 20.0004 5.61606 20.0004 5.72516L19.9988 15.5733Z" fill="#D9D9D9"/>
<path d="M15.2989 5.37983C13.9449 4.02461 12.1441 3.27789 10.2254 3.27713C6.27229 3.27713 3.05488 6.4933 3.0533 10.4465C3.05279 11.7102 3.38305 12.9437 4.01066 14.0309L2.99316 17.7463L6.79522 16.7493C7.84279 17.3205 9.02221 17.6215 10.2226 17.622H10.2255C14.1783 17.622 17.396 14.4055 17.3976 10.4522C17.3984 8.53645 16.6531 6.73504 15.2989 5.37983ZM10.2255 16.4111H10.2231C9.15344 16.4107 8.1043 16.1234 7.18904 15.5805L6.97135 15.4513L4.71516 16.043L5.31738 13.8439L5.17561 13.6184C4.57889 12.6696 4.26373 11.573 4.2642 10.447C4.26549 7.16125 6.93969 4.48807 10.2279 4.48807C11.8201 4.48867 13.3168 5.10938 14.4423 6.23576C15.5678 7.36215 16.1872 8.85944 16.1867 10.4518C16.1854 13.7378 13.5112 16.4111 10.2255 16.4111ZM13.4954 11.9479C13.3161 11.8582 12.4351 11.4248 12.2708 11.365C12.1066 11.3052 11.9871 11.2754 11.8676 11.4547C11.7482 11.6341 11.4047 12.0376 11.3002 12.1571C11.1956 12.2767 11.0911 12.2917 10.9119 12.202C10.7327 12.1123 10.1553 11.9231 9.47076 11.3128C8.93805 10.8378 8.57836 10.2511 8.47383 10.0717C8.3693 9.89238 8.46271 9.79545 8.55242 9.70611C8.63303 9.62586 8.73162 9.49688 8.82123 9.39227C8.91082 9.28768 8.9407 9.21291 9.00043 9.09336C9.06018 8.97379 9.03029 8.86916 8.98549 8.77949C8.9407 8.68983 8.58228 7.80803 8.43295 7.44934C8.2875 7.1 8.13973 7.14727 8.02973 7.14178C7.92531 7.13658 7.80572 7.13549 7.68627 7.13549C7.56682 7.13549 7.37266 7.18031 7.2084 7.35967C7.04414 7.53902 6.58119 7.97244 6.58119 8.85422C6.58119 9.736 7.22332 10.5879 7.31293 10.7074C7.40254 10.827 8.57658 12.6366 10.3743 13.4126C10.8019 13.5971 11.1356 13.7074 11.3959 13.7899C11.8252 13.9263 12.2159 13.907 12.5247 13.8609C12.869 13.8095 13.5849 13.4275 13.7343 13.0091C13.8836 12.5906 13.8836 12.2319 13.8388 12.1572C13.794 12.0824 13.6746 12.0376 13.4954 11.9479Z" fill="#116631"/>
</g>
<defs>
<clipPath id="clip0_9862_8512">
<rect width="20" height="20" fill="white" transform="translate(0 0.628929)"/>
</clipPath>
</defs>
</svg>
