<svg width="20" height="21" viewBox="0 0 20 21" fill="none" xmlns="http://www.w3.org/2000/svg">
<g clip-path="url(#clip0_9862_8498)">
<path fill-rule="evenodd" clip-rule="evenodd" d="M9.1128 0.691406H10.8796C13.3061 0.691406 14.7241 1.0478 15.9829 1.72268C17.2416 2.39756 18.235 3.38334 18.9023 4.64212C19.5772 5.90088 19.9336 7.31888 19.9336 9.7454V11.5046C19.9336 13.9312 19.5772 15.3492 18.9023 16.6079C18.2274 17.8667 17.2416 18.8601 15.9829 19.5274C14.7241 20.2022 13.3061 20.5586 10.8796 20.5586H9.12036C6.69384 20.5586 5.27584 20.2022 4.01708 19.5274C2.75833 18.8525 1.76497 17.8667 1.09768 16.6079C0.4228 15.3492 0.0664062 13.9312 0.0664062 11.5046V9.7454C0.0664062 7.31888 0.4228 5.90088 1.09768 4.64212C1.77256 3.38334 2.75833 2.38998 4.01708 1.72268C5.26828 1.0478 6.69384 0.691406 9.1128 0.691406Z" fill="#07461E"/>
<path opacity="0.12" fill-rule="evenodd" clip-rule="evenodd" d="M19.9334 11.2144V11.5048C19.9334 13.9313 19.5771 15.3493 18.9022 16.608C18.2273 17.8668 17.2415 18.8602 15.9828 19.5275C14.724 20.2024 13.306 20.5588 10.8795 20.5588H9.12028C7.13476 20.5588 5.82448 20.3201 4.72416 19.8636L2.91016 17.9957L19.9334 11.2144Z" fill="#001A33"/>
<path fill-rule="evenodd" clip-rule="evenodd" d="M3.1116 18.0607C4.04076 18.1634 5.20244 17.8984 6.02728 17.498C9.609 19.4777 15.2079 19.3832 18.5969 17.2143C18.7284 17.0171 18.8512 16.8121 18.9651 16.5995C19.6425 15.3362 20.0002 13.913 20.0002 11.4776V9.712C20.0002 7.2766 19.6425 5.85344 18.9651 4.59009C18.2954 3.32674 17.2984 2.33737 16.0351 1.66003C14.7717 0.982696 13.3486 0.625 10.9132 0.625H9.13996C7.06576 0.625 5.71928 0.886102 4.58796 1.38457C4.52612 1.43995 4.46544 1.49627 4.40604 1.55354C1.08694 4.75312 0.834632 11.6887 3.64912 15.4563C3.65226 15.4618 3.65573 15.4674 3.65956 15.4731C4.09336 16.1124 3.67478 17.2312 3.02027 17.8856C2.91372 17.9846 2.95178 18.0455 3.1116 18.0607Z" fill="white"/>
<path d="M8.22516 7.425H4.33516V8.25912H7.03464L4.37304 11.5577C4.28964 11.679 4.229 11.7928 4.229 12.0506V12.2629H7.89908C8.08108 12.2629 8.23276 12.1112 8.23276 11.9292V11.4818H5.39676L7.89908 8.34252C7.937 8.29704 8.00524 8.21364 8.0356 8.17572L8.05076 8.15296C8.19484 7.94064 8.22516 7.75864 8.22516 7.53876V7.425Z" fill="#07461E"/>
<path d="M13.1766 12.2629H13.7301V7.425H12.896V11.9823C12.896 12.134 13.0173 12.2629 13.1766 12.2629Z" fill="#07461E"/>
<path d="M10.3257 8.50196C9.27921 8.50196 8.42993 9.35124 8.42993 10.3977C8.42993 11.4441 9.27921 12.2934 10.3257 12.2934C11.3721 12.2934 12.2214 11.4441 12.2214 10.3977C12.229 9.35124 11.3797 8.50196 10.3257 8.50196ZM10.3257 11.5124C9.71145 11.5124 9.21097 11.0119 9.21097 10.3977C9.21097 9.78348 9.71145 9.283 10.3257 9.283C10.9399 9.283 11.4403 9.78348 11.4403 10.3977C11.4403 11.0119 10.9475 11.5124 10.3257 11.5124Z" fill="#07461E"/>
<path d="M16.1946 8.47148C15.1405 8.47148 14.2837 9.32836 14.2837 10.3824C14.2837 11.4364 15.1405 12.2933 16.1946 12.2933C17.2486 12.2933 18.1055 11.4364 18.1055 10.3824C18.1055 9.32836 17.2486 8.47148 16.1946 8.47148ZM16.1946 11.5122C15.5728 11.5122 15.0723 11.0118 15.0723 10.39C15.0723 9.76816 15.5728 9.26768 16.1946 9.26768C16.8164 9.26768 17.3169 9.76816 17.3169 10.39C17.3169 11.0118 16.8164 11.5122 16.1946 11.5122Z" fill="#07461E"/>
<path d="M11.7824 12.2628H12.2298V8.6078H11.4487V11.9367C11.4487 12.1111 11.6004 12.2628 11.7824 12.2628Z" fill="#07461E"/>
</g>
<defs>
<clipPath id="clip0_9862_8498">
<rect width="20" height="20" fill="white" transform="translate(0 0.625)"/>
</clipPath>
</defs>
</svg>
